<svg id="svg" version="1.1" viewBox="0 0 400 177.77777777777777" xmlns="http://www.w3.org/2000/svg" xmlns:xlink="http://www.w3.org/1999/xlink" ><g id="svgg"><path id="path0" d="M234.664 45.781 C 234.553 45.914,234.335 45.974,234.178 45.914 C 233.968 45.833,233.923 45.881,234.006 46.097 C 234.067 46.257,234.040 46.437,233.945 46.495 C 233.850 46.554,233.829 46.697,233.898 46.812 C 233.970 46.932,233.894 46.917,233.723 46.778 C 233.397 46.514,233.311 46.310,233.600 46.489 C 233.699 46.550,233.777 46.417,233.775 46.188 C 233.773 45.885,233.732 45.842,233.617 46.023 C 233.532 46.158,233.371 46.212,233.260 46.143 C 233.143 46.071,233.078 46.117,233.107 46.253 C 233.134 46.383,233.050 46.467,232.920 46.440 C 232.784 46.412,232.737 46.476,232.810 46.593 C 232.878 46.704,232.824 46.865,232.689 46.950 C 232.509 47.065,232.552 47.106,232.855 47.108 C 233.136 47.110,233.223 47.041,233.132 46.889 C 233.041 46.738,233.095 46.745,233.299 46.911 C 233.694 47.231,233.713 47.216,232.844 47.263 C 230.967 47.364,230.580 47.624,230.422 48.889 C 230.410 48.987,230.000 49.067,229.511 49.067 C 228.605 49.067,228.414 49.347,228.611 50.386 C 228.628 50.476,228.518 50.446,228.366 50.319 C 228.058 50.064,227.989 49.873,228.267 50.044 C 228.366 50.106,228.443 49.973,228.442 49.744 C 228.440 49.441,228.398 49.398,228.284 49.578 C 228.198 49.713,228.038 49.767,227.927 49.698 C 227.809 49.626,227.745 49.673,227.773 49.809 C 227.800 49.938,227.716 50.022,227.587 49.996 C 227.450 49.967,227.404 50.032,227.476 50.149 C 227.545 50.260,227.491 50.421,227.356 50.506 C 227.175 50.621,227.219 50.662,227.522 50.664 C 227.803 50.666,227.890 50.597,227.799 50.444 C 227.708 50.293,227.761 50.300,227.966 50.466 C 228.288 50.727,228.349 50.857,228.133 50.823 C 227.445 50.715,226.825 50.876,226.854 51.156 C 226.976 52.353,226.851 52.778,226.400 52.696 C 226.118 52.645,225.955 52.698,225.953 52.841 C 225.951 53.005,225.907 52.998,225.791 52.816 C 225.446 52.270,225.151 53.017,225.103 54.559 C 225.052 56.205,224.999 56.387,224.617 56.240 C 224.438 56.171,224.356 56.258,224.356 56.514 C 224.356 56.720,224.256 56.869,224.133 56.844 C 224.011 56.820,223.931 56.900,223.956 57.022 C 223.980 57.144,223.885 57.244,223.744 57.244 C 223.603 57.244,223.431 57.337,223.361 57.450 C 223.282 57.577,223.312 57.607,223.439 57.528 C 223.552 57.458,223.644 57.486,223.644 57.590 C 223.644 57.693,223.564 57.778,223.467 57.778 C 223.250 57.778,223.311 58.173,223.556 58.353 C 223.666 58.434,223.651 58.484,223.515 58.486 C 223.239 58.490,223.234 66.454,223.511 66.800 C 223.608 66.922,223.632 67.022,223.565 67.022 C 223.497 67.022,223.561 67.142,223.708 67.289 C 224.027 67.608,224.252 67.642,224.067 67.343 C 223.995 67.226,224.189 67.310,224.498 67.530 C 224.807 67.751,225.052 67.986,225.042 68.054 C 224.858 69.337,225.090 70.222,225.610 70.222 C 225.911 70.222,226.107 70.298,226.049 70.392 C 225.991 70.486,225.847 70.539,225.728 70.510 C 225.609 70.482,225.572 70.492,225.646 70.533 C 225.719 70.574,225.738 70.676,225.687 70.758 C 225.636 70.841,225.688 70.967,225.802 71.037 C 225.920 71.110,225.963 71.090,225.902 70.990 C 225.842 70.894,225.899 70.815,226.028 70.815 C 226.173 70.815,226.228 70.947,226.171 71.165 C 226.109 71.401,226.155 71.489,226.313 71.436 C 226.591 71.344,226.703 70.799,226.473 70.657 C 226.384 70.602,226.311 70.466,226.311 70.356 C 226.311 70.245,226.423 70.307,226.560 70.495 C 226.697 70.682,226.781 70.977,226.748 71.151 C 226.714 71.325,226.760 71.467,226.849 71.467 C 226.938 71.467,226.962 71.594,226.903 71.749 C 226.819 71.967,226.892 72.019,227.219 71.976 C 227.453 71.946,227.659 71.998,227.677 72.094 C 227.695 72.189,227.575 72.249,227.411 72.227 C 227.242 72.205,227.209 72.231,227.334 72.287 C 227.457 72.341,227.516 72.454,227.465 72.536 C 227.414 72.619,227.466 72.744,227.580 72.815 C 227.698 72.888,227.741 72.867,227.680 72.768 C 227.620 72.672,227.677 72.593,227.806 72.593 C 227.951 72.593,228.005 72.725,227.949 72.942 C 227.887 73.179,227.933 73.267,228.091 73.214 C 228.369 73.121,228.481 72.577,228.251 72.435 C 228.162 72.380,228.091 72.239,228.094 72.123 C 228.102 71.820,228.519 72.560,228.551 72.933 C 228.566 73.104,228.588 73.355,228.600 73.490 C 228.616 73.669,228.903 73.736,229.644 73.735 C 231.235 73.733,231.496 73.765,231.383 73.948 C 231.325 74.041,231.180 74.094,231.061 74.066 C 230.942 74.037,230.905 74.048,230.979 74.089 C 231.053 74.130,231.072 74.231,231.020 74.314 C 230.969 74.397,231.021 74.522,231.136 74.593 C 231.253 74.666,231.297 74.645,231.235 74.546 C 231.176 74.449,231.232 74.370,231.361 74.370 C 231.507 74.370,231.561 74.503,231.504 74.720 C 231.442 74.956,231.489 75.045,231.646 74.992 C 231.925 74.899,232.036 74.355,231.806 74.212 C 231.717 74.157,231.647 74.017,231.650 73.901 C 231.658 73.598,232.074 74.338,232.106 74.711 C 232.121 74.882,232.143 75.142,232.156 75.289 C 232.184 75.633,232.435 75.628,232.787 75.276 C 232.977 75.086,233.067 75.067,233.067 75.217 C 233.067 75.338,233.119 75.384,233.184 75.320 C 233.248 75.256,233.403 75.288,233.528 75.392 C 233.688 75.525,233.863 75.523,234.122 75.384 C 234.324 75.276,234.489 75.250,234.489 75.327 C 234.489 75.601,240.294 75.472,240.641 75.190 C 240.815 75.049,240.903 75.024,240.836 75.136 C 240.759 75.264,240.915 75.367,241.266 75.419 C 241.996 75.526,242.663 74.904,242.535 74.236 C 242.476 73.929,242.528 73.771,242.690 73.759 C 242.824 73.748,243.434 73.717,244.046 73.690 C 244.658 73.663,245.265 73.552,245.396 73.444 C 245.526 73.336,245.698 73.307,245.778 73.379 C 245.858 73.452,245.870 73.417,245.803 73.301 C 245.737 73.186,245.764 73.041,245.864 72.980 C 245.963 72.918,246.044 72.710,246.044 72.517 C 246.044 72.172,246.236 72.032,246.875 71.911 C 247.054 71.877,247.200 71.837,247.200 71.822 C 247.200 71.670,247.825 71.729,247.835 71.882 C 247.842 71.996,247.912 71.929,247.991 71.733 C 248.069 71.538,248.060 71.285,247.969 71.171 C 247.865 71.040,247.883 70.917,248.019 70.833 C 248.136 70.760,248.189 70.773,248.135 70.861 C 248.081 70.950,248.149 71.125,248.285 71.251 C 248.428 71.384,248.533 71.403,248.533 71.296 C 248.533 71.194,248.593 71.131,248.667 71.156 C 248.740 71.180,248.813 71.129,248.829 71.042 C 248.845 70.955,248.965 70.816,249.096 70.734 C 249.273 70.621,249.277 70.583,249.111 70.581 C 248.989 70.579,248.889 70.493,248.889 70.390 C 248.889 70.286,248.969 70.251,249.067 70.311 C 249.164 70.372,249.244 70.328,249.244 70.214 C 249.244 70.100,249.344 70.045,249.467 70.092 C 249.624 70.152,249.688 69.948,249.685 69.390 C 249.679 68.369,249.721 68.324,250.658 68.334 L 251.449 68.343 251.477 67.460 C 251.492 66.975,251.525 66.538,251.551 66.489 C 251.577 66.440,251.588 66.340,251.577 66.267 C 251.565 66.193,251.644 66.133,251.752 66.133 C 251.861 66.133,251.903 66.253,251.847 66.400 C 251.791 66.547,251.822 66.667,251.917 66.667 C 252.011 66.667,252.089 66.483,252.089 66.258 C 252.089 65.737,252.403 65.422,252.924 65.422 C 253.392 65.422,253.392 65.422,253.160 64.812 C 253.065 64.561,253.053 64.356,253.135 64.356 C 253.216 64.356,253.274 61.696,253.263 58.444 C 253.249 54.083,253.191 52.543,253.039 52.572 C 252.926 52.593,252.726 52.478,252.595 52.316 C 252.390 52.063,252.394 52.044,252.622 52.183 C 253.047 52.442,253.333 52.433,253.333 52.162 C 253.333 52.024,253.213 51.911,253.067 51.911 C 252.920 51.911,252.799 51.811,252.797 51.689 C 252.795 51.541,252.739 51.555,252.627 51.732 C 252.484 51.958,252.425 51.960,252.230 51.750 C 252.058 51.566,252.056 51.535,252.222 51.629 C 252.523 51.799,252.503 51.589,252.189 51.275 C 251.925 51.010,251.620 51.229,251.815 51.543 C 251.871 51.634,251.853 51.749,251.774 51.797 C 251.616 51.895,251.524 51.352,251.489 50.118 C 251.469 49.384,251.427 49.308,251.067 49.347 C 250.847 49.371,250.667 49.312,250.667 49.216 C 250.667 49.120,250.447 49.067,250.178 49.098 C 249.707 49.153,249.689 49.125,249.689 48.340 C 249.689 47.601,249.652 47.529,249.289 47.569 C 249.069 47.593,248.889 47.531,248.889 47.430 C 248.889 47.330,248.687 47.286,248.440 47.333 C 248.193 47.380,247.948 47.348,247.895 47.262 C 247.841 47.176,247.732 47.146,247.652 47.195 C 247.572 47.245,247.398 47.150,247.265 46.986 C 247.056 46.729,247.059 46.710,247.289 46.850 C 247.714 47.109,248.000 47.100,248.000 46.829 C 248.000 46.691,247.880 46.578,247.733 46.578 C 247.587 46.578,247.465 46.478,247.464 46.356 C 247.462 46.207,247.405 46.221,247.294 46.399 C 247.151 46.624,247.092 46.627,246.896 46.417 C 246.725 46.232,246.723 46.202,246.889 46.296 C 247.190 46.465,247.170 46.256,246.856 45.941 C 246.591 45.677,246.287 45.895,246.481 46.210 C 246.538 46.301,246.490 46.433,246.375 46.504 C 246.245 46.584,246.215 46.556,246.294 46.427 C 246.364 46.315,246.344 46.222,246.249 46.222 C 246.155 46.222,246.119 46.063,246.170 45.868 C 246.290 45.409,235.043 45.324,234.664 45.781 M274.881 45.917 C 274.728 46.234,274.688 46.250,274.679 46.000 C 274.672 45.829,274.594 45.689,274.506 45.689 C 274.417 45.689,274.386 45.849,274.437 46.044 C 274.527 46.388,274.302 46.496,273.658 46.416 C 273.285 46.370,273.180 46.802,273.505 47.040 C 273.804 47.258,273.803 47.270,273.488 47.273 C 271.508 47.291,271.322 47.372,271.250 48.240 C 271.204 48.797,271.219 48.790,270.911 48.410 C 270.745 48.206,270.738 48.152,270.889 48.243 C 271.041 48.335,271.110 48.248,271.108 47.966 C 271.106 47.663,271.065 47.620,270.950 47.801 C 270.865 47.935,270.704 47.989,270.593 47.921 C 270.476 47.848,270.412 47.895,270.440 48.031 C 270.467 48.161,270.383 48.245,270.253 48.218 C 270.117 48.190,270.071 48.254,270.143 48.371 C 270.212 48.482,270.158 48.643,270.023 48.728 C 269.842 48.843,269.885 48.884,270.188 48.886 C 270.417 48.888,270.550 48.810,270.489 48.711 C 270.317 48.434,270.509 48.502,270.764 48.810 C 270.890 48.962,270.920 49.073,270.830 49.056 C 270.167 48.930,269.351 49.099,269.278 49.378 C 269.201 49.674,269.196 49.674,269.176 49.378 C 269.152 49.011,269.126 49.007,268.561 49.264 C 268.323 49.373,268.039 49.656,267.931 49.895 C 267.677 50.450,267.677 50.448,268.044 50.544 C 268.341 50.622,268.341 50.626,268.044 50.646 C 267.762 50.665,267.591 51.472,267.722 52.163 C 267.739 52.253,267.629 52.224,267.477 52.097 C 267.169 51.842,267.100 51.651,267.378 51.822 C 267.477 51.883,267.554 51.751,267.553 51.522 C 267.551 51.219,267.509 51.175,267.395 51.356 C 267.310 51.491,267.149 51.545,267.038 51.476 C 266.921 51.404,266.856 51.450,266.884 51.587 C 266.911 51.716,266.827 51.800,266.698 51.773 C 266.561 51.745,266.515 51.809,266.587 51.927 C 266.656 52.038,266.602 52.198,266.467 52.284 C 266.286 52.398,266.330 52.440,266.633 52.442 C 266.914 52.444,267.001 52.375,266.910 52.222 C 266.819 52.071,266.873 52.078,267.077 52.244 C 267.395 52.502,267.466 52.647,267.244 52.585 C 267.171 52.564,266.851 52.602,266.533 52.669 L 265.956 52.791 265.935 53.996 C 265.924 54.658,265.877 55.055,265.831 54.879 C 265.720 54.450,265.156 54.572,265.155 55.025 C 265.155 55.258,265.035 55.377,264.803 55.378 C 264.609 55.378,264.423 55.518,264.390 55.689 C 264.351 55.888,264.440 56.000,264.636 56.000 C 264.904 56.000,264.897 56.041,264.575 56.319 C 263.999 56.819,263.988 68.444,264.563 68.444 C 264.656 68.444,264.693 68.382,264.646 68.305 C 264.598 68.228,264.714 68.165,264.902 68.165 C 265.090 68.165,265.244 68.231,265.244 68.313 C 265.244 68.394,265.384 68.437,265.555 68.408 C 265.803 68.366,265.884 68.523,265.962 69.193 C 266.072 70.141,266.128 70.231,266.634 70.269 C 266.834 70.284,266.958 70.361,266.909 70.440 C 266.860 70.519,266.745 70.538,266.654 70.481 C 266.340 70.287,266.121 70.591,266.386 70.856 C 266.700 71.170,266.910 71.190,266.740 70.889 C 266.646 70.723,266.677 70.725,266.861 70.896 C 267.072 71.092,267.069 71.151,266.843 71.294 C 266.666 71.405,266.652 71.462,266.800 71.464 C 266.922 71.465,267.022 71.587,267.022 71.733 C 267.022 71.880,267.135 72.000,267.273 72.000 C 267.544 72.000,267.553 71.714,267.294 71.289 C 267.154 71.059,267.173 71.056,267.431 71.265 C 267.595 71.398,267.686 71.578,267.632 71.665 C 267.578 71.751,267.639 71.834,267.767 71.849 C 267.895 71.864,268.080 71.895,268.178 71.918 C 268.276 71.940,268.460 71.968,268.588 71.979 C 268.716 71.991,268.774 72.077,268.716 72.170 C 268.658 72.264,268.513 72.317,268.394 72.288 C 268.275 72.259,268.238 72.270,268.312 72.311 C 268.386 72.352,268.405 72.454,268.354 72.536 C 268.303 72.619,268.355 72.744,268.469 72.815 C 268.586 72.888,268.630 72.867,268.569 72.768 C 268.509 72.672,268.566 72.593,268.695 72.593 C 268.840 72.593,268.894 72.725,268.838 72.942 C 268.776 73.179,268.822 73.267,268.980 73.214 C 269.258 73.121,269.370 72.577,269.140 72.435 C 269.051 72.380,268.978 72.244,268.978 72.133 C 268.978 72.023,269.090 72.085,269.227 72.272 C 269.363 72.459,269.448 72.755,269.415 72.929 C 269.381 73.102,269.434 73.244,269.532 73.244 C 269.630 73.244,269.652 73.338,269.581 73.452 C 269.495 73.592,269.550 73.623,269.749 73.547 C 269.911 73.484,270.044 73.500,270.044 73.583 C 270.044 73.665,270.364 73.718,270.756 73.701 C 271.147 73.684,271.467 73.724,271.467 73.789 C 271.467 73.854,271.667 73.885,271.912 73.858 C 272.157 73.831,272.311 73.883,272.255 73.974 C 272.199 74.065,272.079 74.093,271.988 74.037 C 271.673 73.842,271.455 74.147,271.719 74.411 C 272.029 74.721,272.249 74.748,272.067 74.454 C 271.995 74.337,272.183 74.417,272.484 74.632 C 272.786 74.846,273.151 75.022,273.295 75.022 C 273.439 75.022,273.656 75.142,273.778 75.289 C 274.037 75.601,274.392 75.652,274.205 75.350 C 274.120 75.212,274.157 75.194,274.322 75.296 C 274.658 75.504,280.011 75.533,280.421 75.330 C 280.631 75.226,280.715 75.227,280.649 75.334 C 280.588 75.433,280.735 75.468,281.000 75.417 C 281.333 75.353,281.391 75.289,281.216 75.179 C 281.021 75.055,281.021 75.027,281.213 75.025 C 281.342 75.023,281.568 75.142,281.714 75.289 C 282.082 75.657,282.311 75.623,282.311 75.200 C 282.311 75.004,282.211 74.844,282.089 74.843 C 281.967 74.843,282.096 74.723,282.376 74.577 C 282.656 74.431,283.036 74.311,283.220 74.311 C 283.405 74.311,283.556 74.226,283.556 74.123 C 283.556 74.019,283.481 73.981,283.390 74.037 C 283.299 74.093,283.167 74.045,283.096 73.931 C 283.016 73.801,283.044 73.770,283.173 73.850 C 283.285 73.919,283.378 73.911,283.378 73.831 C 283.378 73.752,283.838 73.694,284.400 73.702 C 284.962 73.711,285.502 73.674,285.600 73.619 C 285.698 73.565,285.895 73.518,286.039 73.516 C 286.182 73.513,286.389 73.332,286.499 73.112 C 286.609 72.893,286.741 72.756,286.792 72.807 C 286.844 72.859,286.933 72.669,286.989 72.386 C 287.087 71.900,287.141 71.872,287.944 71.889 L 288.795 71.906 288.778 71.062 C 288.760 70.205,289.208 69.781,289.768 70.127 C 289.871 70.191,289.956 70.149,289.956 70.033 C 289.956 69.878,290.017 69.874,290.194 70.021 C 290.504 70.279,290.723 70.060,290.466 69.750 C 290.348 69.609,290.339 69.511,290.443 69.511 C 290.539 69.511,290.596 69.315,290.570 69.075 C 290.519 68.609,290.890 68.185,291.352 68.180 C 291.506 68.179,291.723 67.998,291.832 67.779 C 291.942 67.559,292.085 67.433,292.149 67.497 C 292.272 67.620,292.287 67.503,292.336 66.021 C 292.368 65.060,292.667 64.493,293.062 64.645 C 293.191 64.695,293.351 64.649,293.417 64.543 C 293.482 64.437,293.630 64.404,293.746 64.470 C 293.861 64.536,293.896 64.525,293.824 64.445 C 293.751 64.365,293.773 64.202,293.871 64.083 C 294.114 63.791,294.220 62.400,293.999 62.400 C 293.884 62.400,293.885 62.323,294.002 62.178 C 294.226 61.899,294.199 54.235,293.973 53.884 C 293.876 53.734,293.877 53.674,293.973 53.734 C 294.062 53.789,294.134 53.581,294.134 53.272 C 294.133 52.694,293.711 52.325,293.469 52.691 C 293.377 52.831,293.338 52.826,293.336 52.672 C 293.334 52.542,293.209 52.500,293.022 52.567 C 292.851 52.629,292.764 52.620,292.828 52.548 C 292.893 52.477,293.088 52.397,293.263 52.371 C 293.438 52.345,293.616 52.219,293.659 52.091 C 293.713 51.929,293.621 51.887,293.357 51.956 C 293.149 52.011,292.933 51.982,292.877 51.892 C 292.821 51.801,292.701 51.774,292.610 51.830 C 292.519 51.886,292.444 51.647,292.444 51.299 C 292.444 50.951,292.356 50.667,292.248 50.667 C 292.139 50.667,292.097 50.547,292.153 50.400 C 292.209 50.253,292.178 50.133,292.083 50.133 C 291.989 50.133,291.911 50.013,291.911 49.867 C 291.911 49.720,291.771 49.594,291.600 49.586 C 291.414 49.578,291.378 49.536,291.511 49.482 C 291.890 49.329,291.755 49.096,291.316 49.144 C 290.819 49.198,290.227 48.814,290.393 48.545 C 290.457 48.441,290.425 48.356,290.322 48.356 C 290.218 48.356,290.133 48.236,290.133 48.089 C 290.133 47.942,289.993 47.816,289.822 47.808 C 289.636 47.800,289.601 47.758,289.733 47.704 C 289.856 47.655,289.956 47.556,289.956 47.485 C 289.956 47.368,289.587 47.328,287.933 47.268 C 287.599 47.256,287.501 47.200,287.651 47.107 C 287.777 47.029,288.023 46.992,288.197 47.026 C 288.415 47.068,288.482 47.005,288.412 46.825 C 288.357 46.681,288.182 46.575,288.023 46.591 C 287.863 46.606,287.673 46.600,287.600 46.576 C 287.527 46.553,287.367 46.522,287.244 46.507 C 287.122 46.493,287.047 46.338,287.077 46.164 C 287.115 45.942,287.035 45.863,286.810 45.901 C 286.633 45.931,286.507 45.860,286.530 45.744 C 286.561 45.585,285.165 45.532,280.821 45.528 L 275.071 45.524 274.881 45.917 M315.046 45.896 C 314.974 46.090,314.860 46.243,314.791 46.235 C 314.723 46.228,314.673 46.279,314.680 46.349 C 314.687 46.418,314.547 46.526,314.369 46.589 C 314.190 46.651,314.044 46.814,314.044 46.951 C 314.044 47.126,313.767 47.216,313.111 47.254 C 312.292 47.301,312.175 47.355,312.157 47.698 C 312.140 48.014,312.121 48.027,312.053 47.768 C 311.942 47.339,311.378 47.461,311.378 47.914 C 311.377 48.146,311.258 48.266,311.025 48.266 C 310.572 48.267,310.450 48.831,310.879 48.942 C 311.094 48.998,311.043 49.032,310.724 49.046 C 310.432 49.059,310.217 49.187,310.167 49.378 C 310.090 49.674,310.085 49.674,310.065 49.378 C 310.041 49.011,310.015 49.007,309.450 49.264 C 309.212 49.373,308.928 49.656,308.820 49.895 C 308.562 50.460,308.567 50.487,308.933 50.501 C 309.206 50.512,309.202 50.531,308.902 50.648 C 308.714 50.722,308.500 50.936,308.426 51.124 C 308.308 51.424,308.290 51.428,308.279 51.156 C 308.264 50.789,308.238 50.784,307.672 51.042 C 307.434 51.150,307.150 51.434,307.042 51.672 C 306.784 52.238,306.789 52.264,307.156 52.279 C 307.419 52.290,307.424 52.310,307.191 52.412 C 307.006 52.493,306.898 52.826,306.864 53.421 C 306.799 54.541,306.845 54.490,305.909 54.485 L 305.117 54.480 305.081 61.462 L 305.045 68.444 305.600 68.444 C 305.907 68.444,306.108 68.520,306.049 68.614 C 305.991 68.708,305.847 68.761,305.728 68.732 C 305.609 68.704,305.572 68.714,305.646 68.755 C 305.719 68.797,305.738 68.898,305.687 68.981 C 305.636 69.063,305.688 69.189,305.802 69.260 C 305.920 69.332,305.963 69.312,305.902 69.213 C 305.842 69.116,305.899 69.037,306.028 69.037 C 306.173 69.037,306.228 69.170,306.171 69.387 C 306.109 69.623,306.155 69.711,306.313 69.659 C 306.591 69.566,306.703 69.021,306.473 68.879 C 306.384 68.824,306.314 68.684,306.317 68.567 C 306.325 68.226,306.736 69.025,306.801 69.511 C 306.834 69.756,306.876 70.256,306.894 70.622 C 306.927 71.288,307.091 71.486,307.260 71.067 C 307.347 70.851,307.452 71.385,307.389 71.719 C 307.372 71.809,307.482 71.779,307.634 71.653 C 307.812 71.505,307.911 71.492,307.911 71.617 C 307.911 71.724,308.031 71.765,308.178 71.709 C 308.324 71.652,308.444 71.700,308.444 71.814 C 308.444 71.928,308.520 71.974,308.613 71.917 C 308.706 71.860,308.750 71.977,308.711 72.179 C 308.664 72.420,308.724 72.528,308.886 72.495 C 309.022 72.467,309.117 72.524,309.099 72.622 C 309.081 72.720,309.015 72.783,308.952 72.762 C 308.890 72.741,308.796 72.886,308.744 73.083 C 308.666 73.383,308.694 73.407,308.912 73.225 C 309.127 73.047,309.192 73.077,309.274 73.393 C 309.330 73.605,309.450 73.778,309.542 73.778 C 309.634 73.778,309.661 73.699,309.601 73.602 C 309.539 73.501,309.610 73.471,309.769 73.532 C 309.934 73.596,310.046 73.541,310.047 73.397 C 310.049 73.211,310.082 73.206,310.190 73.376 C 310.267 73.498,310.692 73.624,311.134 73.658 C 312.037 73.726,312.414 73.895,312.252 74.158 C 312.191 74.255,312.265 74.310,312.415 74.279 C 312.565 74.248,312.673 74.302,312.655 74.400 C 312.637 74.498,312.571 74.561,312.508 74.540 C 312.445 74.519,312.351 74.663,312.300 74.861 C 312.221 75.161,312.249 75.184,312.467 75.003 C 312.682 74.825,312.747 74.855,312.830 75.171 C 312.885 75.382,313.006 75.556,313.098 75.556 C 313.190 75.556,313.217 75.476,313.157 75.380 C 313.095 75.279,313.166 75.249,313.324 75.310 C 313.489 75.373,313.601 75.319,313.603 75.175 C 313.605 75.015,313.649 74.999,313.736 75.127 C 313.905 75.376,314.708 75.588,314.557 75.343 C 314.484 75.225,314.559 75.222,314.779 75.333 C 315.174 75.534,320.380 75.494,320.713 75.288 C 320.865 75.194,320.901 75.215,320.817 75.350 C 320.747 75.463,320.770 75.556,320.868 75.556 C 320.966 75.556,321.093 75.479,321.151 75.386 C 321.209 75.292,321.363 75.257,321.494 75.307 C 321.625 75.357,321.780 75.274,321.838 75.121 C 321.897 74.969,322.087 74.850,322.261 74.857 C 322.538 74.868,322.533 74.888,322.222 75.022 C 321.873 75.173,321.873 75.175,322.237 75.188 C 322.718 75.204,322.889 75.023,322.656 74.743 C 322.527 74.587,322.535 74.481,322.686 74.388 C 322.803 74.316,322.855 74.329,322.802 74.417 C 322.748 74.505,322.816 74.681,322.952 74.807 C 323.095 74.939,323.200 74.958,323.200 74.851 C 323.200 74.750,323.260 74.687,323.333 74.711 C 323.407 74.736,323.480 74.684,323.496 74.598 C 323.512 74.511,323.632 74.372,323.763 74.289 C 323.940 74.177,323.944 74.138,323.778 74.136 C 323.656 74.135,323.556 74.067,323.556 73.985 C 323.556 73.809,323.612 73.801,325.378 73.740 C 326.635 73.697,326.756 73.661,326.756 73.326 C 326.756 72.845,327.084 72.533,327.591 72.533 C 327.816 72.533,328.000 72.456,328.000 72.361 C 328.000 72.266,327.880 72.235,327.733 72.291 C 327.587 72.348,327.467 72.300,327.467 72.186 C 327.467 72.072,327.547 72.028,327.644 72.089 C 327.742 72.149,327.822 72.119,327.822 72.021 C 327.822 71.923,327.981 71.873,328.174 71.910 C 328.368 71.948,328.572 71.903,328.629 71.811 C 328.692 71.710,328.852 71.707,329.033 71.803 C 329.411 72.003,329.810 71.628,329.593 71.277 C 329.506 71.136,329.522 70.938,329.632 70.806 C 329.736 70.680,329.762 70.578,329.689 70.578 C 329.616 70.578,329.655 70.459,329.776 70.313 C 329.897 70.167,330.061 70.089,330.141 70.138 C 330.221 70.188,330.337 70.147,330.399 70.047 C 330.468 69.934,330.624 69.926,330.811 70.025 C 331.208 70.236,331.575 69.857,331.355 69.464 C 331.259 69.292,331.263 69.138,331.365 69.075 C 331.458 69.017,331.503 68.812,331.466 68.618 C 331.429 68.425,331.478 68.267,331.576 68.267 C 331.674 68.267,331.705 68.187,331.644 68.089 C 331.584 67.991,331.628 67.911,331.742 67.911 C 331.856 67.911,331.903 68.031,331.847 68.178 C 331.791 68.324,331.822 68.444,331.917 68.444 C 332.011 68.444,332.089 68.260,332.089 68.036 C 332.089 67.509,332.405 67.200,332.943 67.200 C 333.282 67.200,333.344 67.135,333.242 66.889 C 333.095 66.535,333.095 66.484,333.242 65.511 C 333.301 65.120,333.359 64.700,333.371 64.578 C 333.383 64.456,333.468 64.356,333.560 64.356 C 333.652 64.356,333.681 64.476,333.625 64.622 C 333.568 64.769,333.600 64.889,333.694 64.889 C 333.789 64.889,333.867 64.705,333.867 64.480 C 333.867 63.959,334.181 63.644,334.702 63.644 C 335.179 63.644,335.225 63.428,334.832 63.035 C 334.678 62.881,334.629 62.756,334.722 62.756 C 334.815 62.756,334.930 62.558,334.976 62.316 C 335.027 62.048,334.990 61.921,334.880 61.988 C 334.766 62.059,334.758 62.008,334.857 61.850 C 335.068 61.513,335.093 55.642,334.885 55.223 C 334.777 55.005,334.782 54.929,334.899 55.001 C 335.144 55.152,334.932 54.349,334.682 54.181 C 334.554 54.094,334.570 54.049,334.730 54.047 C 334.875 54.046,334.929 53.934,334.866 53.769 C 334.805 53.610,334.835 53.539,334.935 53.601 C 335.032 53.661,335.111 53.634,335.111 53.542 C 335.111 53.450,334.938 53.330,334.726 53.274 C 334.410 53.192,334.380 53.127,334.559 52.912 C 334.740 52.694,334.716 52.666,334.417 52.744 C 334.219 52.796,334.074 52.890,334.095 52.952 C 334.116 53.015,334.053 53.081,333.956 53.099 C 333.858 53.117,333.803 53.009,333.834 52.859 C 333.865 52.709,333.811 52.636,333.713 52.696 C 333.456 52.855,333.248 52.448,333.222 51.733 C 333.185 50.734,333.164 50.640,332.998 50.743 C 332.911 50.797,332.731 50.706,332.598 50.542 C 332.389 50.284,332.393 50.265,332.622 50.405 C 333.047 50.664,333.333 50.656,333.333 50.384 C 333.333 50.246,333.213 50.133,333.067 50.133 C 332.920 50.133,332.799 50.033,332.797 49.911 C 332.795 49.763,332.739 49.777,332.627 49.954 C 332.484 50.180,332.425 50.183,332.230 49.972 C 332.058 49.788,332.056 49.757,332.222 49.851 C 332.523 50.021,332.503 49.811,332.189 49.497 C 331.925 49.233,331.620 49.451,331.815 49.765 C 331.871 49.857,331.834 49.982,331.732 50.045 C 331.630 50.108,331.558 50.094,331.572 50.013 C 331.640 49.624,331.530 49.244,331.276 48.990 C 331.101 48.816,331.075 48.711,331.206 48.711 C 331.323 48.711,331.369 48.588,331.310 48.435 C 331.249 48.277,331.279 48.206,331.380 48.268 C 331.476 48.328,331.556 48.301,331.556 48.209 C 331.556 48.117,331.382 47.996,331.171 47.941 C 330.855 47.858,330.825 47.793,331.003 47.579 C 331.184 47.360,331.161 47.332,330.861 47.411 C 330.663 47.463,330.519 47.568,330.540 47.646 C 330.561 47.723,330.498 47.789,330.400 47.793 C 330.302 47.796,330.243 47.697,330.268 47.574 C 330.293 47.450,330.193 47.348,330.045 47.348 C 329.898 47.348,329.777 47.435,329.775 47.541 C 329.773 47.664,329.724 47.658,329.639 47.523 C 329.565 47.408,329.147 47.288,328.708 47.257 C 328.064 47.211,327.921 47.140,327.963 46.889 C 327.992 46.718,327.949 46.578,327.868 46.578 C 327.787 46.578,327.721 46.424,327.721 46.235 C 327.721 46.047,327.783 45.932,327.860 45.979 C 327.937 46.027,328.000 45.989,328.000 45.896 C 328.000 45.338,315.253 45.337,315.046 45.896 M273.208 45.884 C 273.141 46.058,273.221 46.158,273.442 46.175 C 273.627 46.189,273.778 46.120,273.778 46.023 C 273.778 45.925,273.705 45.891,273.615 45.946 C 273.526 46.001,273.420 45.950,273.381 45.832 C 273.332 45.686,273.277 45.703,273.208 45.884 M287.292 45.978 C 287.288 46.278,287.769 46.630,287.898 46.421 C 287.957 46.325,287.924 46.197,287.825 46.135 C 287.726 46.074,287.643 46.088,287.642 46.167 C 287.640 46.246,287.561 46.191,287.467 46.044 C 287.372 45.898,287.293 45.868,287.292 45.978 M292.625 51.312 C 292.621 51.611,293.103 51.963,293.232 51.754 C 293.291 51.658,293.258 51.530,293.158 51.468 C 293.059 51.407,292.977 51.422,292.975 51.501 C 292.974 51.580,292.895 51.524,292.800 51.378 C 292.705 51.231,292.626 51.201,292.625 51.312 M334.209 63.896 C 334.201 63.904,334.169 64.046,334.137 64.210 C 334.071 64.552,334.499 64.462,334.636 64.105 C 334.698 63.943,334.330 63.764,334.209 63.896 M252.431 65.674 C 252.423 65.682,252.391 65.823,252.359 65.988 C 252.293 66.330,252.721 66.240,252.858 65.883 C 252.920 65.721,252.553 65.541,252.431 65.674 M223.913 66.670 C 223.974 66.769,224.111 66.797,224.218 66.731 C 224.333 66.660,224.359 66.694,224.283 66.817 C 224.164 67.010,223.467 66.800,223.467 66.572 C 223.467 66.415,223.801 66.489,223.913 66.670 M332.431 67.452 C 332.423 67.460,332.391 67.601,332.359 67.765 C 332.293 68.108,332.721 68.018,332.858 67.660 C 332.920 67.499,332.553 67.319,332.431 67.452 M224.533 68.059 C 224.533 68.271,224.606 68.444,224.695 68.444 C 224.876 68.444,224.849 67.990,224.657 67.798 C 224.589 67.730,224.533 67.847,224.533 68.059 M225.244 71.090 C 225.244 71.263,225.936 71.910,226.010 71.806 C 226.039 71.766,225.878 71.556,225.653 71.340 C 225.428 71.123,225.244 71.011,225.244 71.090 M249.117 71.413 C 248.901 71.638,248.789 71.822,248.868 71.822 C 249.041 71.822,249.688 71.131,249.584 71.057 C 249.544 71.028,249.334 71.188,249.117 71.413 M327.098 72.785 C 327.090 72.793,327.058 72.934,327.026 73.099 C 326.960 73.441,327.388 73.351,327.525 72.994 C 327.587 72.832,327.219 72.653,327.098 72.785 M282.653 74.523 C 282.526 75.035,282.554 75.164,282.773 75.080 C 283.064 74.968,283.098 74.734,282.844 74.578 C 282.747 74.517,282.661 74.493,282.653 74.523 M323.784 74.969 C 323.568 75.194,323.455 75.378,323.534 75.378 C 323.708 75.378,324.355 74.687,324.251 74.612 C 324.211 74.583,324.001 74.744,323.784 74.969 M272.533 75.198 C 272.533 75.577,272.665 75.636,273.015 75.413 C 273.170 75.315,273.133 75.216,272.882 75.059 C 272.579 74.870,272.533 74.888,272.533 75.198 " stroke="none" fill="#ac945c" fill-rule="evenodd"></path><path id="path1" d="M225.081 70.950 C 225.073 71.106,225.247 71.386,225.467 71.572 C 225.863 71.908,225.864 71.908,225.579 71.556 C 225.420 71.360,225.247 71.080,225.193 70.933 C 225.110 70.707,225.093 70.710,225.081 70.950 M95.407 72.296 C 95.342 72.361,95.289 72.751,95.289 73.162 C 95.289 73.901,95.282 73.910,94.563 74.006 C 94.164 74.060,93.784 74.157,93.719 74.222 C 93.620 74.321,93.518 81.209,93.512 88.222 L 93.511 89.956 92.622 89.956 L 91.733 89.956 91.733 97.057 L 91.733 104.158 90.889 104.212 L 90.044 104.267 90.003 110.578 C 89.981 114.049,89.961 117.625,89.959 118.524 L 89.956 120.158 89.111 120.212 L 88.267 120.267 88.267 124.533 L 88.267 128.800 95.200 128.800 L 102.133 128.800 102.187 127.965 L 102.241 127.130 103.076 127.076 L 103.911 127.022 103.959 122.622 L 104.006 118.222 104.679 118.222 C 105.814 118.222,105.778 118.467,105.778 110.898 L 105.778 104.000 106.387 104.000 C 107.586 104.000,107.556 104.191,107.556 96.633 L 107.556 89.825 108.281 89.727 C 108.681 89.674,109.061 89.577,109.126 89.511 C 109.191 89.446,109.267 85.519,109.294 80.785 L 109.343 72.178 102.435 72.178 C 98.635 72.178,95.473 72.231,95.407 72.296 M113.067 73.067 L 113.067 73.956 112.172 73.956 L 111.278 73.956 111.289 78.356 C 111.295 80.776,111.298 83.165,111.295 83.665 L 111.289 84.575 110.563 84.673 C 110.164 84.726,109.784 84.823,109.719 84.889 C 109.653 84.954,109.578 88.516,109.550 92.805 L 109.500 100.603 108.661 100.657 L 107.822 100.711 107.781 107.022 C 107.758 110.493,107.738 114.073,107.737 114.978 L 107.733 116.622 106.844 116.622 L 105.956 116.622 105.956 122.756 L 105.956 128.889 121.587 128.889 C 138.896 128.889,137.778 128.968,137.778 127.744 L 137.778 127.158 140.080 127.075 C 142.603 126.984,142.881 126.879,142.968 125.987 C 143.020 125.449,143.064 125.418,143.911 125.333 L 144.800 125.244 144.854 124.409 L 144.908 123.574 145.743 123.520 L 146.578 123.467 146.632 122.632 L 146.685 121.796 147.520 121.743 L 148.356 121.689 148.409 120.854 L 148.463 120.019 149.298 119.965 L 150.133 119.911 150.187 119.089 C 150.239 118.274,150.246 118.266,150.957 118.171 C 151.914 118.042,151.898 118.071,152.000 116.208 L 152.088 114.578 152.177 116.356 L 152.267 118.133 163.778 118.179 L 175.289 118.225 175.289 119.192 L 175.289 120.158 174.444 120.212 L 173.600 120.267 173.600 124.533 L 173.600 128.800 180.533 128.800 L 187.467 128.800 187.520 127.965 L 187.574 127.130 188.409 127.076 L 189.244 127.022 189.292 122.627 L 189.340 118.232 191.959 118.183 L 194.578 118.133 194.677 116.356 C 194.769 114.703,194.897 122.924,194.845 127.156 L 194.824 128.889 201.577 128.889 C 209.698 128.889,208.889 129.215,208.889 125.943 L 208.889 123.556 209.564 123.556 C 210.695 123.556,210.667 123.723,210.667 117.120 L 210.667 111.111 211.276 111.111 C 212.445 111.111,212.444 111.115,212.444 105.522 L 212.444 100.491 213.170 100.394 C 214.061 100.274,214.052 100.283,214.172 99.392 L 214.269 98.667 216.112 98.667 L 217.956 98.667 217.956 99.172 C 217.956 99.788,218.443 100.267,219.070 100.267 C 219.326 100.267,219.584 100.347,219.644 100.444 C 219.710 100.550,219.503 100.622,219.136 100.622 C 217.859 100.622,217.947 100.085,217.956 107.798 C 217.960 111.625,217.962 115.576,217.959 116.578 L 217.956 118.400 217.064 118.400 L 216.172 118.400 216.220 123.600 L 216.267 128.800 223.200 128.800 L 230.133 128.800 230.188 127.956 C 230.241 127.126,230.252 127.111,230.841 127.111 C 232.016 127.111,232.000 127.201,232.000 120.633 L 232.000 114.713 232.726 114.616 C 233.125 114.563,233.505 114.465,233.570 114.400 C 233.635 114.335,233.712 111.168,233.739 107.363 L 233.790 100.444 234.459 100.444 C 235.305 100.444,235.556 100.192,235.556 99.342 L 235.556 98.667 238.356 98.667 L 241.156 98.667 241.119 100.133 C 241.099 100.940,241.079 102.580,241.075 103.778 L 241.067 105.956 240.174 105.956 L 239.281 105.956 239.289 113.022 C 239.293 116.909,239.295 120.905,239.293 121.901 L 239.289 123.714 238.444 123.768 L 237.600 123.822 237.551 126.258 L 237.501 128.693 238.084 128.803 C 239.616 129.090,252.600 128.810,252.927 128.483 C 253.214 128.196,253.250 127.681,253.304 123.194 L 253.363 118.222 253.958 118.222 C 255.181 118.222,255.111 119.014,255.111 105.154 C 255.111 91.384,255.138 91.733,254.059 91.733 L 253.353 91.733 253.299 90.889 L 253.244 90.044 252.409 89.991 L 251.574 89.937 251.520 89.102 L 251.467 88.267 249.743 88.216 L 248.019 88.165 247.965 87.327 L 247.911 86.489 238.311 86.489 L 228.711 86.489 228.657 87.342 L 228.602 88.195 227.592 88.142 L 226.582 88.089 226.472 87.404 C 226.306 86.379,226.582 86.406,215.970 86.403 C 204.850 86.400,205.511 86.338,205.511 87.379 L 205.511 88.142 203.926 88.205 C 202.115 88.275,202.136 88.265,202.009 89.209 C 201.919 89.876,201.876 89.919,201.209 90.009 C 200.265 90.136,200.275 90.115,200.205 91.926 L 200.142 93.511 199.262 93.511 L 198.382 93.511 198.401 95.689 C 198.430 99.179,198.526 98.817,197.556 98.879 L 196.711 98.933 196.671 104.965 C 196.649 108.282,196.595 111.082,196.552 111.187 C 196.508 111.292,196.466 110.158,196.458 108.667 L 196.444 105.956 193.769 105.956 L 191.093 105.956 191.147 104.933 C 191.199 103.928,191.209 103.910,191.765 103.856 C 192.807 103.755,192.795 103.839,192.856 96.592 L 192.912 89.950 187.701 89.997 L 182.489 90.044 182.435 90.889 L 182.381 91.733 180.622 91.733 L 178.863 91.733 178.798 92.667 L 178.732 93.600 178.700 92.601 L 178.667 91.602 179.392 91.505 C 180.360 91.375,180.347 91.400,180.418 89.585 L 180.480 88.000 181.138 88.000 C 182.103 88.000,182.222 87.782,182.222 86.019 L 182.222 84.464 183.067 84.410 L 183.911 84.356 184.000 83.467 C 184.085 82.620,184.116 82.575,184.653 82.523 C 185.451 82.446,185.593 82.186,185.718 80.575 L 185.827 79.151 186.528 79.057 C 187.467 78.931,187.458 78.949,187.528 77.162 L 187.589 75.598 188.298 75.503 C 188.688 75.450,189.056 75.359,189.115 75.300 C 189.319 75.096,189.364 73.154,189.175 72.667 L 188.987 72.178 181.249 72.178 L 173.511 72.178 173.511 73.067 L 173.511 73.956 172.622 73.956 L 171.733 73.956 171.733 75.733 L 171.733 77.511 170.844 77.511 L 169.956 77.511 169.956 78.377 L 169.956 79.242 169.230 79.339 C 168.263 79.469,168.276 79.445,168.205 81.250 L 168.143 82.826 167.316 82.880 L 166.489 82.933 166.438 84.667 L 166.387 86.400 165.505 86.400 L 164.622 86.400 164.622 88.178 L 164.622 89.956 163.733 89.956 L 162.844 89.956 162.844 90.821 L 162.844 91.687 162.119 91.784 C 161.151 91.914,161.165 91.889,161.094 93.694 L 161.032 95.271 160.205 95.324 L 159.378 95.378 159.327 97.111 L 159.276 98.844 158.394 98.844 L 157.511 98.844 157.511 100.622 L 157.511 102.400 156.632 102.400 L 155.752 102.400 155.687 103.333 C 155.651 103.847,155.603 100.267,155.581 95.378 C 155.532 84.744,155.518 84.632,154.267 84.625 C 153.803 84.622,153.777 84.578,153.770 83.778 C 153.752 81.767,153.427 81.075,152.499 81.069 C 152.054 81.067,152.016 81.007,151.965 80.222 L 151.911 79.378 151.076 79.324 L 150.241 79.270 150.187 78.435 L 150.133 77.600 149.298 77.546 L 148.463 77.492 148.409 76.657 L 148.356 75.822 146.632 75.771 L 144.908 75.721 144.854 74.883 L 144.800 74.044 143.111 74.020 C 141.835 74.001,141.414 73.936,141.390 73.753 C 141.372 73.620,141.308 73.211,141.248 72.844 L 141.139 72.178 127.103 72.178 L 113.067 72.178 113.067 73.067 M136.178 87.111 L 136.178 88.000 137.067 88.000 L 137.956 88.000 137.958 89.378 C 137.962 91.016,138.062 91.216,138.959 91.361 L 139.644 91.473 139.733 98.696 L 139.822 105.920 139.058 106.006 C 138.045 106.120,138.054 106.104,137.983 107.905 L 137.922 109.469 137.213 109.564 C 136.264 109.691,136.276 109.670,136.205 111.481 L 136.142 113.067 135.271 113.067 L 134.400 113.067 134.400 113.956 L 134.400 114.844 128.044 114.815 C 124.549 114.798,122.008 114.752,122.398 114.712 C 123.615 114.588,123.556 114.967,123.556 107.356 L 123.556 100.444 124.165 100.444 C 125.364 100.444,125.333 100.638,125.333 93.054 L 125.333 86.222 130.756 86.222 L 136.178 86.222 136.178 87.111 M266.074 86.519 C 266.009 86.584,265.956 86.976,265.956 87.390 L 265.956 88.142 264.370 88.205 C 262.560 88.275,262.580 88.265,262.453 89.209 C 262.364 89.876,262.320 89.919,261.654 90.009 C 260.704 90.136,260.711 90.121,260.711 91.925 L 260.711 93.510 259.778 93.511 L 258.844 93.511 258.844 95.289 L 258.844 97.067 257.956 97.067 L 257.067 97.067 257.067 99.724 L 257.067 102.381 256.222 102.435 L 255.378 102.489 255.335 110.844 C 255.289 119.828,255.269 119.640,256.293 119.805 L 256.978 119.916 257.029 121.565 C 257.085 123.355,257.223 123.556,258.402 123.556 C 258.780 123.556,258.831 123.644,258.879 124.400 L 258.933 125.244 259.778 125.299 L 260.622 125.353 260.622 126.122 C 260.622 127.044,260.757 127.105,262.800 127.109 L 264.178 127.111 264.178 127.890 C 264.178 128.946,263.451 128.884,275.765 128.886 C 287.732 128.889,287.111 128.953,287.111 127.721 C 287.111 127.145,287.145 127.111,287.721 127.111 C 288.693 127.111,288.889 126.770,288.889 125.077 L 288.889 123.602 289.615 123.505 C 290.620 123.370,290.578 123.526,290.578 119.941 L 290.578 116.711 280.844 116.665 L 271.111 116.619 271.111 116.188 C 271.111 115.215,270.816 114.847,270.004 114.808 C 269.586 114.788,272.292 114.728,276.017 114.674 C 283.396 114.569,283.311 114.582,283.412 113.542 L 283.467 112.978 285.986 112.889 C 288.807 112.789,288.706 112.827,288.837 111.846 C 288.932 111.135,288.941 111.128,289.756 111.075 L 290.578 111.022 290.632 110.187 L 290.685 109.352 291.520 109.298 L 292.356 109.244 292.409 108.422 C 292.462 107.608,292.469 107.599,293.179 107.504 C 293.573 107.451,293.949 107.354,294.015 107.289 C 294.080 107.224,294.133 104.117,294.133 100.385 L 294.133 93.600 293.295 93.546 L 292.457 93.492 292.406 91.768 L 292.356 90.044 291.520 89.991 L 290.685 89.937 290.632 89.102 L 290.578 88.267 289.733 88.212 C 288.978 88.164,288.889 88.114,288.889 87.735 C 288.889 87.502,288.811 87.107,288.716 86.856 L 288.542 86.400 277.367 86.400 C 271.221 86.400,266.139 86.453,266.074 86.519 M177.095 104.948 L 177.034 105.956 174.295 105.956 L 171.556 105.956 171.556 105.001 L 171.556 104.047 172.281 103.949 C 173.249 103.820,173.235 103.845,173.307 102.030 L 173.369 100.444 174.027 100.444 C 174.992 100.444,175.111 100.227,175.111 98.463 L 175.111 96.908 175.956 96.854 L 176.800 96.800 176.889 95.911 C 176.992 94.885,177.186 103.434,177.095 104.948 M278.400 97.604 C 278.400 98.372,278.773 98.667,279.745 98.667 C 280.176 98.667,280.178 98.674,280.178 100.533 L 280.178 102.400 275.644 102.400 L 271.111 102.400 271.111 101.422 L 271.111 100.444 271.787 100.444 C 272.638 100.444,272.889 100.194,272.889 99.342 C 272.889 98.679,272.901 98.667,273.564 98.667 C 274.416 98.667,274.667 98.416,274.667 97.564 L 274.667 96.889 276.533 96.889 L 278.400 96.889 278.400 97.604 " stroke="none" fill="#4c4c4c" fill-rule="evenodd"></path><path id="path2" d="M246.887 45.636 C 247.106 45.679,247.406 45.886,247.554 46.096 C 247.702 46.307,247.822 46.387,247.822 46.274 C 247.822 45.929,247.285 45.510,246.876 45.535 C 246.490 45.559,246.491 45.560,246.887 45.636 M287.479 45.860 C 288.153 46.219,288.442 46.500,288.580 46.933 C 288.627 47.080,288.637 46.975,288.602 46.701 C 288.519 46.050,288.227 45.777,287.466 45.637 L 286.844 45.522 287.479 45.860 M232.634 46.031 C 232.062 46.663,232.408 46.882,233.007 46.267 C 233.452 45.810,233.504 45.689,233.257 45.689 C 233.085 45.689,232.805 45.843,232.634 46.031 M273.282 46.050 C 273.164 46.240,273.070 46.536,273.074 46.709 C 273.078 46.886,273.195 46.759,273.343 46.418 C 273.640 45.734,273.606 45.531,273.282 46.050 M330.844 47.528 C 331.089 47.657,331.327 47.732,331.373 47.694 C 331.498 47.591,330.973 47.294,330.667 47.294 C 330.520 47.294,330.599 47.399,330.844 47.528 M269.968 47.809 C 269.395 48.441,269.741 48.660,270.340 48.044 C 270.785 47.588,270.837 47.467,270.590 47.467 C 270.418 47.467,270.138 47.621,269.968 47.809 M332.221 49.192 C 332.440 49.234,332.740 49.441,332.887 49.652 C 333.035 49.862,333.156 49.943,333.156 49.830 C 333.156 49.485,332.618 49.065,332.210 49.091 C 331.824 49.115,331.824 49.115,332.221 49.192 M227.301 49.587 C 226.729 50.219,227.075 50.437,227.674 49.822 C 228.118 49.365,228.171 49.244,227.923 49.244 C 227.751 49.244,227.471 49.398,227.301 49.587 M252.221 50.970 C 252.440 51.012,252.740 51.219,252.887 51.429 C 253.035 51.640,253.156 51.720,253.156 51.608 C 253.156 51.263,252.618 50.843,252.210 50.869 C 251.824 50.893,251.824 50.893,252.221 50.970 M292.444 50.960 C 292.444 50.989,292.685 51.138,292.979 51.290 C 293.274 51.442,293.627 51.824,293.765 52.139 C 293.932 52.520,294.020 52.602,294.030 52.383 C 294.056 51.799,293.486 51.059,292.949 50.980 C 292.671 50.939,292.444 50.930,292.444 50.960 M266.412 51.365 C 265.840 51.997,266.186 52.215,266.785 51.600 C 267.230 51.143,267.282 51.022,267.035 51.022 C 266.863 51.022,266.582 51.176,266.412 51.365 M334.400 52.862 C 334.644 52.991,334.882 53.065,334.928 53.027 C 335.053 52.925,334.529 52.628,334.222 52.628 C 334.075 52.628,334.155 52.733,334.400 52.862 M334.490 64.354 C 334.312 64.551,334.250 64.711,334.351 64.711 C 334.574 64.711,335.018 64.203,334.898 64.084 C 334.851 64.036,334.667 64.158,334.490 64.354 M252.712 66.132 C 252.535 66.328,252.472 66.489,252.573 66.489 C 252.797 66.489,253.240 65.981,253.121 65.861 C 253.073 65.814,252.890 65.936,252.712 66.132 M223.296 67.306 C 223.288 67.705,223.925 68.401,224.120 68.206 C 224.184 68.142,224.140 68.089,224.021 68.089 C 223.902 68.089,223.692 67.829,223.554 67.511 C 223.360 67.066,223.301 67.019,223.296 67.306 M332.712 67.910 C 332.535 68.106,332.472 68.267,332.573 68.267 C 332.797 68.267,333.240 67.759,333.121 67.639 C 333.073 67.592,332.890 67.714,332.712 67.910 M305.202 68.949 C 305.281 69.486,306.021 70.056,306.605 70.030 C 306.824 70.020,306.742 69.932,306.361 69.765 C 306.046 69.627,305.664 69.274,305.512 68.979 C 305.168 68.314,305.108 68.308,305.202 68.949 M225.272 70.758 C 225.487 71.375,226.050 71.829,226.573 71.808 C 226.841 71.797,226.780 71.726,226.337 71.533 C 225.969 71.372,225.665 71.072,225.543 70.748 C 225.281 70.055,225.030 70.065,225.272 70.758 M249.232 70.714 C 249.105 71.078,248.851 71.336,248.476 71.479 C 248.041 71.644,247.985 71.712,248.231 71.773 C 248.682 71.884,249.396 71.368,249.530 70.834 C 249.696 70.171,249.456 70.074,249.232 70.714 M265.980 70.876 C 265.954 71.285,266.374 71.822,266.719 71.822 C 266.831 71.822,266.751 71.702,266.541 71.554 C 266.330 71.406,266.123 71.106,266.081 70.887 C 266.004 70.491,266.004 70.490,265.980 70.876 M267.689 72.009 C 267.811 72.141,267.911 72.416,267.911 72.619 C 267.911 73.031,268.582 73.491,269.422 73.657 C 269.862 73.744,269.823 73.700,269.201 73.408 C 268.769 73.206,268.333 72.834,268.180 72.538 C 268.034 72.255,267.813 71.966,267.690 71.896 C 267.511 71.795,267.511 71.818,267.689 72.009 M226.980 72.504 C 227.059 73.041,227.799 73.611,228.383 73.585 C 228.602 73.576,228.520 73.487,228.139 73.321 C 227.824 73.183,227.442 72.829,227.290 72.535 C 226.946 71.870,226.886 71.864,226.980 72.504 M308.628 72.889 C 308.628 73.195,308.925 73.720,309.027 73.595 C 309.065 73.549,308.991 73.311,308.862 73.067 C 308.733 72.822,308.628 72.742,308.628 72.889 M327.379 73.243 C 327.201 73.440,327.139 73.600,327.240 73.600 C 327.463 73.600,327.907 73.092,327.787 72.972 C 327.740 72.925,327.556 73.047,327.379 73.243 M230.536 74.282 C 230.614 74.819,231.354 75.389,231.939 75.363 C 232.157 75.354,232.076 75.265,231.694 75.098 C 231.380 74.961,230.998 74.607,230.845 74.313 C 230.501 73.648,230.442 73.642,230.536 74.282 M323.899 74.269 C 323.772 74.634,323.517 74.891,323.143 75.034 C 322.708 75.200,322.651 75.268,322.898 75.328 C 323.349 75.440,324.062 74.924,324.196 74.389 C 324.363 73.726,324.122 73.629,323.899 74.269 M271.296 74.417 C 271.288 74.816,271.925 75.512,272.120 75.317 C 272.184 75.253,272.140 75.200,272.021 75.200 C 271.902 75.200,271.692 74.940,271.554 74.622 C 271.360 74.177,271.301 74.130,271.296 74.417 M312.183 74.667 C 312.183 74.973,312.480 75.498,312.583 75.373 C 312.621 75.327,312.546 75.089,312.417 74.844 C 312.288 74.599,312.183 74.520,312.183 74.667 M282.947 75.045 C 282.758 75.228,282.689 75.378,282.792 75.378 C 282.997 75.378,283.471 74.873,283.359 74.774 C 283.320 74.740,283.135 74.862,282.947 75.045 " stroke="none" fill="#544c4c" fill-rule="evenodd"></path><path id="path3" d="M233.956 45.709 C 233.956 45.967,234.474 46.009,234.675 45.767 C 234.852 45.555,234.809 45.518,234.422 45.550 C 234.165 45.571,233.956 45.643,233.956 45.709 M246.222 45.867 C 246.086 46.122,246.087 46.222,246.226 46.222 C 246.333 46.222,246.363 46.322,246.293 46.444 C 246.223 46.567,246.231 46.607,246.312 46.534 C 246.462 46.397,246.610 45.511,246.483 45.511 C 246.444 45.511,246.327 45.671,246.222 45.867 M274.627 45.911 C 274.696 46.174,274.750 46.198,274.866 46.015 C 275.079 45.679,275.058 45.570,274.780 45.570 C 274.629 45.570,274.571 45.698,274.627 45.911 M286.397 45.774 C 286.511 45.911,286.721 45.978,286.865 45.923 C 287.188 45.799,287.102 45.701,286.586 45.602 C 286.264 45.540,286.229 45.571,286.397 45.774 M314.844 45.669 C 314.844 45.756,314.704 45.816,314.533 45.802 C 314.338 45.787,314.231 45.894,314.247 46.089 C 314.260 46.260,314.200 46.400,314.114 46.400 C 314.027 46.400,313.956 46.473,313.956 46.561 C 313.956 46.650,314.113 46.681,314.305 46.631 C 314.497 46.581,314.637 46.448,314.616 46.336 C 314.595 46.225,314.669 46.150,314.781 46.171 C 314.893 46.192,315.025 46.052,315.075 45.860 C 315.126 45.668,315.094 45.511,315.006 45.511 C 314.917 45.511,314.844 45.582,314.844 45.669 M246.756 45.856 C 246.756 45.960,246.836 46.044,246.933 46.044 C 247.031 46.044,247.111 46.129,247.111 46.233 C 247.111 46.336,247.011 46.365,246.889 46.296 C 246.717 46.198,246.714 46.221,246.877 46.398 C 247.048 46.583,247.144 46.571,247.379 46.335 C 247.539 46.175,247.624 46.034,247.568 46.022 C 247.512 46.010,247.407 45.989,247.333 45.975 C 247.260 45.961,247.100 45.887,246.978 45.809 C 246.851 45.729,246.756 45.749,246.756 45.856 M274.189 45.934 C 274.264 46.129,274.226 46.218,274.081 46.185 C 273.957 46.157,273.839 46.193,273.817 46.267 C 273.795 46.340,273.818 46.400,273.867 46.400 C 273.916 46.400,274.076 46.400,274.222 46.400 C 274.538 46.400,274.579 45.944,274.281 45.759 C 274.140 45.672,274.110 45.728,274.189 45.934 M287.548 46.385 C 287.597 46.720,287.874 46.691,287.924 46.346 C 287.944 46.213,287.858 46.104,287.733 46.104 C 287.609 46.104,287.525 46.230,287.548 46.385 M233.778 46.410 C 233.778 46.514,233.698 46.549,233.600 46.489 C 233.301 46.304,233.402 46.519,233.733 46.772 C 233.904 46.903,233.985 46.940,233.913 46.855 C 233.840 46.769,233.870 46.592,233.979 46.461 C 234.125 46.285,234.124 46.222,233.977 46.222 C 233.868 46.222,233.778 46.307,233.778 46.410 M273.274 46.911 C 273.086 47.030,273.101 47.086,273.344 47.179 C 273.513 47.244,273.693 47.255,273.744 47.204 C 273.795 47.153,273.724 47.105,273.585 47.099 C 273.436 47.091,273.479 47.024,273.689 46.933 C 273.923 46.833,273.954 46.777,273.778 46.771 C 273.631 46.765,273.404 46.829,273.274 46.911 M230.679 47.568 C 230.526 47.722,230.405 47.982,230.412 48.146 C 230.421 48.378,230.465 48.360,230.609 48.063 C 230.710 47.854,230.965 47.599,231.174 47.497 C 231.471 47.354,231.489 47.310,231.257 47.301 C 231.093 47.294,230.833 47.415,230.679 47.568 M248.889 47.429 C 248.889 47.506,249.051 47.581,249.248 47.596 C 249.446 47.611,249.561 47.548,249.504 47.456 C 249.380 47.254,248.889 47.232,248.889 47.429 M289.814 47.578 C 289.627 47.778,289.635 47.822,289.860 47.822 C 290.010 47.822,290.133 47.942,290.133 48.089 C 290.133 48.236,290.211 48.356,290.306 48.356 C 290.400 48.356,290.428 48.496,290.368 48.667 C 290.284 48.907,290.309 48.932,290.479 48.775 C 290.647 48.620,290.652 48.482,290.497 48.193 C 290.386 47.985,290.338 47.745,290.391 47.659 C 290.556 47.392,290.054 47.321,289.814 47.578 M250.667 49.207 C 250.667 49.284,250.828 49.359,251.026 49.374 C 251.224 49.389,251.339 49.326,251.282 49.234 C 251.157 49.032,250.667 49.010,250.667 49.207 M291.592 49.356 C 291.405 49.556,291.413 49.600,291.637 49.600 C 291.788 49.600,291.911 49.720,291.911 49.867 C 291.911 50.013,291.989 50.133,292.083 50.133 C 292.178 50.133,292.206 50.273,292.146 50.444 C 292.061 50.685,292.087 50.710,292.257 50.552 C 292.425 50.397,292.429 50.260,292.275 49.971 C 292.164 49.763,292.116 49.523,292.169 49.437 C 292.334 49.170,291.832 49.099,291.592 49.356 M331.560 49.522 C 331.643 49.741,331.676 49.967,331.633 50.026 C 331.590 50.085,331.609 50.093,331.674 50.045 C 331.906 49.871,331.882 49.126,331.645 49.126 C 331.474 49.126,331.451 49.236,331.560 49.522 M332.089 49.412 C 332.089 49.515,332.169 49.600,332.267 49.600 C 332.364 49.600,332.444 49.685,332.444 49.788 C 332.444 49.892,332.344 49.920,332.222 49.851 C 332.050 49.754,332.047 49.777,332.211 49.954 C 332.381 50.138,332.477 50.126,332.712 49.891 C 332.872 49.731,332.957 49.590,332.902 49.578 C 332.846 49.566,332.740 49.544,332.667 49.531 C 332.593 49.517,332.433 49.442,332.311 49.365 C 332.184 49.284,332.089 49.304,332.089 49.412 M251.654 51.067 C 251.559 51.375,251.595 51.930,251.703 51.823 C 251.821 51.705,251.910 50.844,251.805 50.844 C 251.759 50.844,251.691 50.944,251.654 51.067 M252.089 51.190 C 252.089 51.293,252.169 51.378,252.267 51.378 C 252.364 51.378,252.444 51.462,252.444 51.566 C 252.444 51.670,252.344 51.698,252.222 51.629 C 252.050 51.532,252.047 51.555,252.211 51.731 C 252.381 51.916,252.477 51.904,252.712 51.669 C 252.872 51.509,252.957 51.368,252.902 51.356 C 252.846 51.343,252.740 51.322,252.667 51.308 C 252.593 51.295,252.433 51.220,252.311 51.142 C 252.184 51.062,252.089 51.082,252.089 51.190 M292.881 51.719 C 292.931 52.053,293.207 52.024,293.258 51.679 C 293.277 51.546,293.191 51.437,293.067 51.437 C 292.942 51.437,292.859 51.564,292.881 51.719 M292.926 52.500 C 292.780 52.605,292.808 52.625,293.011 52.560 C 293.176 52.507,293.336 52.532,293.366 52.615 C 293.397 52.697,293.521 52.658,293.641 52.527 C 293.897 52.248,293.304 52.226,292.926 52.500 M264.225 56.204 C 264.195 56.598,264.296 56.618,264.629 56.286 C 264.840 56.074,264.831 56.026,264.563 55.956 C 264.352 55.901,264.241 55.982,264.225 56.204 M224.178 56.339 C 224.178 56.428,224.005 56.455,223.794 56.400 C 223.525 56.329,223.450 56.363,223.543 56.513 C 223.616 56.631,223.599 56.823,223.506 56.941 C 223.290 57.215,223.296 57.778,223.515 57.778 C 223.607 57.778,223.636 57.658,223.580 57.511 C 223.518 57.349,223.580 57.244,223.739 57.244 C 223.883 57.244,223.980 57.144,223.956 57.022 C 223.931 56.900,224.011 56.820,224.133 56.844 C 224.256 56.869,224.356 56.729,224.356 56.533 C 224.356 56.338,224.316 56.178,224.267 56.178 C 224.218 56.178,224.178 56.250,224.178 56.339 M334.988 58.756 C 334.989 59.342,335.023 59.561,335.062 59.241 C 335.102 58.922,335.101 58.442,335.060 58.175 C 335.020 57.907,334.987 58.169,334.988 58.756 M334.080 63.858 C 333.804 64.134,333.808 64.479,334.089 64.640 C 334.211 64.711,334.251 64.702,334.177 64.621 C 333.998 64.423,334.576 63.800,334.807 63.943 C 334.911 64.007,334.934 63.967,334.861 63.850 C 334.697 63.584,334.350 63.588,334.080 63.858 M293.601 64.354 C 293.306 64.680,293.304 64.711,293.578 64.711 C 293.743 64.711,293.925 64.588,293.983 64.437 C 294.149 64.005,293.955 63.964,293.601 64.354 M252.302 65.636 C 252.026 65.912,252.030 66.256,252.311 66.418 C 252.433 66.488,252.473 66.480,252.400 66.398 C 252.220 66.201,252.798 65.578,253.029 65.721 C 253.133 65.785,253.156 65.745,253.084 65.627 C 252.920 65.362,252.572 65.366,252.302 65.636 M223.546 66.651 C 223.601 66.741,223.546 66.853,223.423 66.900 C 223.300 66.948,223.420 66.968,223.689 66.945 C 223.958 66.922,224.238 66.837,224.311 66.756 C 224.385 66.676,224.350 66.664,224.235 66.730 C 224.119 66.796,223.974 66.769,223.913 66.670 C 223.851 66.570,223.721 66.489,223.623 66.489 C 223.526 66.489,223.491 66.562,223.546 66.651 M223.578 67.342 C 223.505 67.460,223.535 67.556,223.644 67.556 C 223.754 67.556,223.797 67.630,223.741 67.721 C 223.685 67.812,223.720 67.937,223.819 67.998 C 223.919 68.060,224.000 68.025,224.000 67.922 C 224.000 67.818,224.089 67.733,224.197 67.733 C 224.307 67.733,224.346 67.870,224.285 68.044 C 224.195 68.304,224.221 68.298,224.444 68.010 C 224.685 67.699,224.796 67.752,224.728 68.147 C 224.714 68.227,224.784 68.242,224.884 68.181 C 225.149 68.017,225.125 67.977,224.501 67.533 C 224.190 67.311,223.995 67.226,224.067 67.343 C 224.140 67.460,224.121 67.556,224.025 67.556 C 223.930 67.556,223.820 67.459,223.781 67.342 C 223.725 67.176,223.680 67.176,223.578 67.342 M332.302 67.413 C 332.026 67.689,332.030 68.034,332.311 68.196 C 332.433 68.266,332.473 68.257,332.400 68.176 C 332.220 67.979,332.798 67.356,333.029 67.498 C 333.133 67.563,333.156 67.523,333.084 67.405 C 332.920 67.140,332.572 67.143,332.302 67.413 M291.784 67.853 C 291.606 68.231,291.615 68.282,291.846 68.193 C 291.996 68.136,292.151 68.089,292.192 68.089 C 292.233 68.089,292.267 67.974,292.267 67.833 C 292.267 67.382,292.001 67.394,291.784 67.853 M306.311 68.578 C 306.311 68.688,306.386 68.825,306.477 68.881 C 306.568 68.938,306.603 69.200,306.555 69.466 C 306.507 69.731,306.515 69.900,306.573 69.842 C 306.802 69.613,306.796 69.039,306.560 68.717 C 306.423 68.530,306.311 68.467,306.311 68.578 M266.000 70.164 C 266.022 70.450,266.131 70.535,266.437 70.502 C 266.983 70.444,267.099 70.304,266.631 70.268 C 266.424 70.253,266.191 70.137,266.113 70.011 C 266.018 69.858,265.981 69.908,266.000 70.164 M226.311 70.356 C 226.311 70.466,226.386 70.603,226.477 70.659 C 226.568 70.715,226.603 70.978,226.555 71.243 C 226.507 71.508,226.515 71.678,226.573 71.620 C 226.802 71.390,226.796 70.817,226.560 70.495 C 226.423 70.307,226.311 70.245,226.311 70.356 M266.253 70.978 C 266.331 71.100,266.406 71.260,266.419 71.333 C 266.433 71.407,266.454 71.512,266.467 71.568 C 266.479 71.624,266.620 71.539,266.780 71.379 C 267.015 71.144,267.027 71.048,266.842 70.877 C 266.666 70.714,266.643 70.717,266.740 70.889 C 266.809 71.011,266.781 71.111,266.677 71.111 C 266.574 71.111,266.489 71.031,266.489 70.933 C 266.489 70.836,266.404 70.756,266.301 70.756 C 266.193 70.756,266.173 70.851,266.253 70.978 M307.060 71.219 C 306.912 71.378,306.900 71.467,307.026 71.467 C 307.133 71.467,307.164 71.559,307.094 71.672 C 307.016 71.798,307.045 71.829,307.169 71.753 C 307.280 71.684,307.541 71.719,307.749 71.830 C 308.037 71.985,308.175 71.981,308.330 71.813 C 308.487 71.642,308.463 71.617,308.222 71.702 C 308.051 71.762,307.911 71.729,307.911 71.628 C 307.911 71.528,307.830 71.496,307.732 71.556 C 307.633 71.617,307.493 71.511,307.421 71.319 C 307.309 71.025,307.254 71.009,307.060 71.219 M228.089 72.133 C 228.089 72.244,228.163 72.381,228.254 72.437 C 228.345 72.493,228.381 72.756,228.332 73.021 C 228.284 73.286,228.292 73.456,228.350 73.398 C 228.580 73.168,228.573 72.595,228.338 72.272 C 228.201 72.085,228.089 72.023,228.089 72.133 M268.978 72.133 C 268.978 72.244,269.052 72.381,269.143 72.437 C 269.234 72.493,269.269 72.756,269.221 73.021 C 269.173 73.286,269.181 73.456,269.239 73.398 C 269.469 73.168,269.462 72.595,269.227 72.272 C 269.090 72.085,268.978 72.023,268.978 72.133 M326.969 72.747 C 326.693 73.023,326.697 73.367,326.978 73.529 C 327.100 73.599,327.140 73.591,327.066 73.510 C 326.887 73.312,327.465 72.689,327.696 72.832 C 327.800 72.896,327.823 72.856,327.750 72.739 C 327.586 72.473,327.239 72.477,326.969 72.747 M286.451 73.186 C 286.272 73.565,286.282 73.615,286.513 73.526 C 286.662 73.469,286.818 73.422,286.859 73.422 C 286.900 73.422,286.933 73.307,286.933 73.166 C 286.933 72.716,286.668 72.727,286.451 73.186 M245.601 73.243 C 245.306 73.569,245.304 73.600,245.578 73.600 C 245.743 73.600,245.925 73.477,245.983 73.326 C 246.149 72.894,245.955 72.853,245.601 73.243 M231.644 73.911 C 231.644 74.022,231.719 74.158,231.810 74.215 C 231.901 74.271,231.936 74.534,231.888 74.799 C 231.840 75.064,231.848 75.234,231.906 75.176 C 232.135 74.946,232.129 74.372,231.893 74.050 C 231.756 73.863,231.644 73.800,231.644 73.911 M271.457 73.962 C 271.280 74.071,271.351 74.102,271.691 74.066 C 272.270 74.004,272.470 73.862,272.025 73.829 C 271.852 73.816,271.596 73.875,271.457 73.962 M271.578 74.453 C 271.505 74.571,271.535 74.667,271.644 74.667 C 271.754 74.667,271.797 74.741,271.741 74.832 C 271.685 74.923,271.720 75.048,271.819 75.109 C 271.919 75.171,272.000 75.136,272.000 75.033 C 272.000 74.929,272.089 74.844,272.197 74.844 C 272.307 74.844,272.346 74.981,272.285 75.156 C 272.195 75.415,272.221 75.409,272.444 75.122 C 272.676 74.822,272.780 74.854,272.742 75.214 C 272.736 75.271,272.907 75.303,273.121 75.285 C 273.336 75.268,273.577 75.342,273.658 75.449 C 273.752 75.575,273.779 75.549,273.732 75.378 C 273.692 75.231,273.506 75.082,273.319 75.046 C 273.131 75.010,272.743 74.814,272.457 74.611 C 272.170 74.408,271.995 74.337,272.067 74.454 C 272.140 74.571,272.121 74.667,272.025 74.667 C 271.930 74.667,271.820 74.571,271.781 74.453 C 271.725 74.287,271.680 74.287,271.578 74.453 M282.387 74.552 C 282.020 74.756,282.020 74.758,282.370 75.112 C 282.563 75.307,282.668 75.372,282.602 75.257 C 282.537 75.141,282.566 74.996,282.667 74.933 C 282.768 74.871,282.809 74.753,282.758 74.671 C 282.708 74.589,282.839 74.567,283.050 74.622 C 283.313 74.691,283.393 74.658,283.306 74.517 C 283.152 74.268,282.878 74.278,282.387 74.552 M321.896 74.963 C 321.680 75.179,321.773 75.378,322.089 75.375 C 322.338 75.373,322.350 75.341,322.152 75.215 C 321.953 75.089,321.970 75.041,322.241 74.972 C 322.483 74.910,322.498 74.880,322.296 74.865 C 322.141 74.854,321.961 74.898,321.896 74.963 M236.048 75.507 C 236.367 75.546,236.847 75.545,237.114 75.505 C 237.381 75.464,237.120 75.432,236.533 75.433 C 235.947 75.434,235.728 75.467,236.048 75.507 M276.937 75.507 C 277.256 75.546,277.736 75.545,278.003 75.505 C 278.270 75.464,278.009 75.432,277.422 75.433 C 276.836 75.434,276.617 75.467,276.937 75.507 M317.825 75.507 C 318.145 75.546,318.625 75.545,318.892 75.505 C 319.159 75.464,318.898 75.432,318.311 75.433 C 317.724 75.434,317.506 75.467,317.825 75.507 " stroke="none" fill="#989854" fill-rule="evenodd"></path><path id="path4" d="M233.244 46.095 C 233.098 46.214,232.861 46.471,232.718 46.667 C 232.575 46.862,232.715 46.787,233.029 46.500 C 233.541 46.032,233.689 45.855,233.556 45.872 C 233.531 45.875,233.391 45.975,233.244 46.095 M270.578 47.872 C 270.431 47.991,270.194 48.249,270.051 48.444 C 269.908 48.640,270.048 48.565,270.362 48.278 C 270.874 47.810,271.022 47.633,270.889 47.650 C 270.864 47.653,270.724 47.753,270.578 47.872 M227.911 49.650 C 227.764 49.769,227.527 50.027,227.385 50.222 C 227.242 50.418,227.382 50.343,227.696 50.056 C 228.208 49.587,228.356 49.411,228.222 49.428 C 228.198 49.431,228.058 49.531,227.911 49.650 M267.022 51.428 C 266.876 51.547,266.639 51.804,266.496 52.000 C 266.353 52.196,266.493 52.121,266.807 51.833 C 267.319 51.365,267.467 51.189,267.333 51.206 C 267.309 51.209,267.169 51.309,267.022 51.428 " stroke="none" fill="#647454" fill-rule="evenodd"></path></g></svg>